# xmcd
#
# Track frame offsets:
# 150
# 11643
# 23715
# 34542
# 51865
#
# Disc length: 870 seconds
#
# Revision: 0
# Processed by: cddbd v1.5.2PL0 Copyright (c) Steve Scherf et al.
# Submitted via: Audion 3.0.2 (http://www.panic.com/audion/)
#
DISCID=31036405
DTITLE=asd - asdasdsad
DYEAR=1900
DGENRE=
TTITLE0=dsdasdas
TTITLE1=asdasd
TTITLE2=asdasdas
TTITLE3=asdasd
TTITLE4=asdas
EXTD=
EXTT0=
EXTT1=
EXTT2=
EXTT3=
EXTT4=
PLAYORDER=
